<svg width="75" height="82" viewBox="0 0 75 82" fill="none" xmlns="http://www.w3.org/2000/svg">
<path d="M61.9083 44.8047L60.2552 44.7107L41.0177 22.7411L41.0955 64.0854H39.2369L39.1582 20.5244H41.732L59.7992 41.7663V20.774H61.9083V44.8047Z" fill="black"/>
<path d="M26.9748 46.425C20.7972 46.425 17.4189 43.9357 16.8525 38.9581H19.5194C19.7191 40.4807 20.4084 41.6692 21.6189 42.5361C22.8189 43.3914 24.5969 43.8253 26.9633 43.8253C28.1076 43.8253 29.1185 43.7024 29.9853 43.4471C30.8522 43.2023 31.5741 42.8692 32.1405 42.4362C32.7185 42.0138 33.1514 41.5136 33.4298 40.9252C33.7073 40.3367 33.8522 39.7136 33.8522 39.0359C33.8522 38.3581 33.7409 37.7917 33.5076 37.3136C33.2858 36.8356 32.874 36.4026 32.274 36.0023C31.674 35.6135 30.8628 35.2468 29.8298 34.8801C28.7969 34.5249 27.474 34.136 25.8631 33.7242C24.4961 33.3796 23.274 33.0244 22.2074 32.6576C21.1409 32.2794 20.2519 31.8244 19.5185 31.2906C18.7965 30.7463 18.2407 30.0906 17.874 29.313C17.5073 28.546 17.3181 27.5792 17.3181 26.4349C17.3181 25.4346 17.5293 24.5236 17.9517 23.7124C18.3741 22.9012 18.9626 22.2129 19.7297 21.6455C20.4852 21.0791 21.4077 20.6461 22.4964 20.3456C23.585 20.0452 24.785 19.8896 26.1069 19.8896C29.1069 19.8896 31.3735 20.3898 32.9287 21.4007C34.4839 22.4 35.3402 23.9889 35.5178 26.1565H32.8509C32.6733 24.9009 32.0733 23.9783 31.0509 23.3783C30.018 22.7898 28.4839 22.4893 26.4506 22.4893C25.4954 22.4893 24.618 22.5786 23.8173 22.7447C23.0177 22.9223 22.3284 23.1777 21.7505 23.5108C21.1841 23.8554 20.7281 24.2778 20.4065 24.7885C20.0839 25.2993 19.9178 25.8772 19.9178 26.5328C19.9178 26.8996 19.985 27.2884 20.1175 27.6772C20.2404 28.066 20.5735 28.4663 21.1063 28.8772C21.6401 29.2996 22.4397 29.7104 23.5063 30.1328C24.5729 30.5668 26.0282 30.9997 27.8724 31.4557C29.3277 31.8224 30.5949 32.2113 31.6721 32.6116C32.7501 33.0119 33.6391 33.49 34.3495 34.0448C35.0493 34.5997 35.5831 35.2449 35.9277 35.9783C36.2724 36.7223 36.45 37.5892 36.45 38.578C36.45 39.6887 36.2282 40.7226 35.7837 41.6893C35.3393 42.656 34.7057 43.4893 33.8945 44.1786C33.0833 44.8679 32.0829 45.4228 30.9165 45.8231C29.7386 46.2234 28.4273 46.4231 26.9719 46.4231L26.9748 46.425Z" fill="#FF0F16"/>
<path d="M35.4766 0.0581055H33.2263V26.1096H35.4766V0.0581055Z" fill="#FF0F16"/>
<path fill-rule="evenodd" clip-rule="evenodd" d="M31.7489 0.3867C16.7691 3.37326 5.48047 16.5915 5.48047 32.4488C5.48047 51.1112 22.5013 66.691 41.0955 65.8683C41.1109 65.3221 41.0648 64.0856 41.0945 63.5739L40.0347 63.5422C22.6424 64.3045 7.61455 49.8757 7.61455 32.4488C7.61455 17.5505 18.1649 5.45838 31.8133 2.5515C31.6942 1.9707 31.6933 1.00878 31.7489 0.385742V0.3867Z" fill="black"/>
<path fill-rule="evenodd" clip-rule="evenodd" d="M44.1156 65.1799C60.0938 62.1934 71.7511 48.9703 72.137 33.1179C72.5959 14.2577 53.7703 -1.06774 33.2263 0.0583373C33.2666 0.651617 33.2263 1.55018 33.2263 2.05226L35.2778 2.02442C42.5806 1.72394 49.2746 4.02794 54.9722 7.69226C63.7476 13.3361 69.8609 22.5511 69.8609 33.1179C69.8609 48.0161 58.6068 60.1083 44.0484 63.0151C44.1761 63.5959 44.1761 64.5579 44.1166 65.1809L44.1156 65.1799Z" fill="#FF0F16"/>
<path d="M4.15941 74.7031C3.96549 74.7031 3.78213 74.6839 3.60837 74.6474C3.43461 74.61 3.27333 74.5553 3.12261 74.4823C2.97285 74.4074 2.83173 74.3162 2.70117 74.2058L2.99685 73.8324C3.15717 73.9725 3.33477 74.0781 3.52869 74.1473C3.72261 74.2173 3.93189 74.2519 4.15941 74.2519C4.47813 74.2519 4.72485 74.1905 4.89861 74.0685C5.07333 73.9457 5.15973 73.7738 5.15973 73.5521V73.5492C5.15973 73.4013 5.12133 73.2842 5.04357 73.1978C4.96581 73.1105 4.86597 73.0471 4.74309 73.0029C4.62021 72.9597 4.46277 72.9194 4.26885 72.8849C4.26309 72.8829 4.25733 72.882 4.25061 72.881C4.24389 72.8801 4.23813 72.8781 4.23237 72.8762L4.17093 72.8656C3.89445 72.8157 3.67173 72.762 3.50373 72.7034C3.33477 72.6458 3.18981 72.5431 3.06981 72.3962C2.94981 72.2503 2.89029 72.0439 2.89029 71.778V71.7751C2.89029 71.5264 2.94597 71.3143 3.05733 71.1376C3.16869 70.962 3.33189 70.8266 3.54597 70.7354C3.76005 70.6433 4.01733 70.5972 4.31877 70.5972C4.46181 70.5972 4.60389 70.6135 4.74213 70.6442C4.88229 70.6759 5.01861 70.722 5.15493 70.7844C5.29029 70.8458 5.42373 70.9245 5.55429 71.0186L5.27781 71.3969C5.11365 71.2807 4.95237 71.1943 4.79301 71.1357C4.63461 71.0781 4.47621 71.0484 4.31877 71.0484C4.01733 71.0484 3.78405 71.1098 3.61701 71.2336C3.44997 71.3575 3.36645 71.5332 3.36645 71.7597V71.7626C3.36645 71.9066 3.40869 72.0209 3.49317 72.1044C3.57861 72.1869 3.68421 72.2493 3.80901 72.2896C3.93477 72.329 4.10757 72.3713 4.32645 72.4154C4.33413 72.4173 4.34181 72.4193 4.34949 72.4193C4.35717 72.4202 4.36485 72.4221 4.37445 72.4241C4.38405 72.426 4.39365 72.4279 4.40421 72.4308C4.41573 72.4337 4.42533 72.4365 4.43493 72.4385C4.68357 72.4874 4.88997 72.546 5.05509 72.6141C5.22021 72.6813 5.35845 72.7879 5.46885 72.9338C5.57925 73.0817 5.63493 73.2804 5.63493 73.5329V73.5386C5.63493 73.7834 5.57733 73.9927 5.46117 74.1674C5.34405 74.3421 5.17605 74.4746 4.95621 74.5658C4.73541 74.657 4.46949 74.7031 4.15845 74.7031H4.15941Z" fill="white"/>
<path d="M11.6081 70.6396H12.0814V74.6621H11.6081V71.4278L11.6417 71.6054L10.5415 74.1024H10.2036L9.10251 71.6601L9.13803 71.4278V74.6621H8.66187V70.6396H9.13514L10.3726 73.4198L11.6081 70.6396Z" fill="white"/>
<path d="M16.3975 70.6396H16.8785L18.3617 74.6621H17.8356L16.6375 71.2377L15.4404 74.6621H14.9143L16.3975 70.6396ZM15.5978 73.2787H17.7137V73.7328H15.5978V73.2787Z" fill="white"/>
<path d="M21.495 72.5068H22.8669C22.9965 72.5068 23.1097 72.477 23.2077 72.4175C23.3046 72.3589 23.3805 72.2754 23.4342 72.1679C23.487 72.0614 23.5158 71.9375 23.5177 71.7983C23.5177 71.6581 23.4909 71.5343 23.4381 71.4268C23.3843 71.3183 23.3085 71.2357 23.2105 71.1772C23.1126 71.1196 22.9993 71.0898 22.8678 71.0898H21.496V70.6357H22.8457C23.0781 70.6357 23.2825 70.6837 23.4592 70.7797C23.6349 70.8748 23.7721 71.0111 23.8681 71.1877C23.9661 71.3634 24.0141 71.5669 24.0141 71.7973C24.0141 72.0277 23.9661 72.2313 23.8681 72.4069C23.7721 72.5826 23.6349 72.718 23.4573 72.8149C23.2806 72.9109 23.0771 72.9589 22.8457 72.9589H21.496V72.5058L21.495 72.5068ZM21.2483 70.6367H21.7302V74.662H21.2483V70.6367ZM22.6873 72.8361L23.152 72.7093L24.1811 74.662H23.608L22.6873 72.8361Z" fill="white"/>
<path d="M27.8454 70.8854H28.3273V74.6611H27.8454V70.8854ZM26.6665 70.6387H29.5052V71.0928H26.6665V70.6387Z" fill="white"/>
<path d="M35.6013 70.6396H36.0583L38.2106 74.0064L38.0935 73.9872V70.6396H38.5725V74.6592H38.1108L35.9392 71.3001L36.0794 71.3443V74.6592H35.6013V70.6396Z" fill="white"/>
<path d="M41.8472 70.6396H42.3291V74.6621H41.8472V70.6396ZM42.1208 74.2089H44.4315V74.6621H42.1208V74.2089ZM42.1208 72.4387H44.1262V72.8918H42.1208V72.4387ZM42.1208 70.6396H44.4315V71.0937H42.1208V70.6396Z" fill="white"/>
<path d="M48.2475 70.8854H48.7294V74.6611H48.2475V70.8854ZM47.0686 70.6387H49.9073V71.0928H47.0686V70.6387Z" fill="white"/>
<path d="M54.6958 70.6396H55.028L55.8795 73.9449L56.66 70.6396H57.1774L56.1406 74.6621H55.6472L54.8792 71.6716L54.0757 74.6621H53.5841L52.5464 70.6396H53.0638L53.8443 73.9449L54.6958 70.6396Z" fill="white"/>
<path d="M61.312 74.7031C61.0221 74.7031 60.7715 74.6426 60.5594 74.5236C60.3472 74.4036 60.184 74.2317 60.0688 74.01C59.9546 73.7882 59.897 73.5242 59.897 73.2209V72.0814C59.897 71.7761 59.9546 71.513 60.0688 71.2903C60.1831 71.0666 60.3463 70.8958 60.5594 70.7767C60.7706 70.6577 61.0221 70.5981 61.312 70.5981C61.601 70.5981 61.8525 70.6577 62.0656 70.7767C62.2778 70.8958 62.441 71.0666 62.5542 71.2903C62.6685 71.513 62.7251 71.777 62.7251 72.0814V73.2209C62.7251 73.5252 62.6685 73.7882 62.5542 74.01C62.441 74.2317 62.2778 74.4036 62.0656 74.5236C61.8525 74.6426 61.601 74.7031 61.312 74.7031ZM61.312 74.2385C61.5021 74.2385 61.6663 74.1972 61.8045 74.1175C61.9447 74.0378 62.0512 73.9217 62.1261 73.7719C62.201 73.6212 62.2384 73.4445 62.2384 73.2391V72.0602C62.2384 71.8529 62.201 71.6743 62.1261 71.5245C62.0512 71.3748 61.9447 71.2596 61.8045 71.1789C61.6663 71.0983 61.5011 71.0589 61.312 71.0589C61.1219 71.0589 60.9568 71.0983 60.8186 71.1789C60.6784 71.2586 60.5719 71.3748 60.4989 71.5245C60.425 71.6743 60.3885 71.8529 60.3885 72.0602V73.2391C60.3885 73.4436 60.4259 73.6212 60.4989 73.7719C60.5728 73.9217 60.6794 74.0369 60.8186 74.1175C60.9568 74.1972 61.1219 74.2385 61.312 74.2385Z" fill="white"/>
<path d="M66.1083 72.5068H67.4801C67.6097 72.5068 67.723 72.477 67.8209 72.4175C67.9179 72.3589 67.9937 72.2754 68.0475 72.1679C68.1003 72.0614 68.1291 71.9375 68.131 71.7983C68.131 71.6581 68.1041 71.5343 68.0513 71.4268C67.9976 71.3183 67.9217 71.2357 67.8238 71.1772C67.7259 71.1196 67.6126 71.0898 67.4811 71.0898H66.1092V70.6357H67.459C67.6913 70.6357 67.8958 70.6837 68.0725 70.7797C68.2481 70.8748 68.3854 71.0111 68.4814 71.1877C68.5793 71.3634 68.6273 71.5669 68.6273 71.7973C68.6273 72.0277 68.5793 72.2313 68.4814 72.4069C68.3854 72.5826 68.2481 72.718 68.0705 72.8149C67.8939 72.9109 67.6904 72.9589 67.459 72.9589H66.1092V72.5058L66.1083 72.5068ZM65.8616 70.6367H66.3435V74.662H65.8616V70.6367ZM67.3006 72.8361L67.7652 72.7093L68.7944 74.662H68.2212L67.3006 72.8361Z" fill="white"/>
<path d="M72.1525 73.1654L74.1445 70.6396H74.7474L72.1938 73.7433L72.1525 73.1654ZM71.8347 70.6396H72.3166V74.6621H71.8347V70.6396ZM73.0539 72.5155L73.3918 72.1027L74.9154 74.6611H74.3317L73.053 72.5145L73.0539 72.5155Z" fill="white"/>
<path d="M1.45824 81.3491C1.26432 81.3491 1.08096 81.3299 0.907201 81.2934C0.733441 81.256 0.572159 81.2013 0.421438 81.1283C0.271678 81.0534 0.13056 80.9622 0 80.8518L0.295679 80.4784C0.455999 80.6185 0.6336 80.7241 0.82752 80.7933C1.02144 80.8633 1.23072 80.8979 1.45824 80.8979C1.77696 80.8979 2.02368 80.8364 2.19744 80.7145C2.37216 80.5916 2.45856 80.4198 2.45856 80.198V80.1952C2.45856 80.0473 2.42016 79.9302 2.3424 79.8438C2.26464 79.7565 2.1648 79.6931 2.04192 79.6489C1.91904 79.6057 1.7616 79.5654 1.56768 79.5309C1.56192 79.5289 1.55616 79.528 1.54944 79.527C1.54272 79.526 1.53696 79.5241 1.5312 79.5222L1.46976 79.5116C1.19328 79.4617 0.970559 79.408 0.802559 79.3494C0.633599 79.2918 0.48864 79.1891 0.36864 79.0422C0.24864 78.8963 0.18912 78.6899 0.18912 78.424V78.4211C0.18912 78.1724 0.244799 77.9603 0.356159 77.7836C0.467519 77.608 0.630719 77.4726 0.844799 77.3814C1.05888 77.2893 1.31616 77.2432 1.6176 77.2432C1.76064 77.2432 1.90272 77.2595 2.04096 77.2902C2.18112 77.3219 2.31744 77.368 2.45376 77.4304C2.58912 77.4918 2.72256 77.5705 2.85312 77.6646L2.57664 78.0429C2.41248 77.9267 2.2512 77.8403 2.09184 77.7817C1.93344 77.7241 1.77504 77.6944 1.6176 77.6944C1.31616 77.6944 1.08288 77.7558 0.915841 77.8796C0.748801 78.0035 0.665279 78.1792 0.665279 78.4057V78.4086C0.665279 78.5526 0.70752 78.6669 0.792 78.7504C0.87744 78.8329 0.983041 78.8953 1.10784 78.9356C1.2336 78.975 1.4064 79.0173 1.62528 79.0614C1.63296 79.0633 1.64064 79.0653 1.64832 79.0653C1.656 79.0662 1.66368 79.0681 1.67328 79.07C1.68288 79.072 1.69248 79.0739 1.70304 79.0768C1.71456 79.0797 1.72416 79.0825 1.73376 79.0844C1.9824 79.1334 2.1888 79.192 2.35392 79.2601C2.51904 79.3273 2.65728 79.4339 2.76768 79.5798C2.87808 79.7277 2.93376 79.9264 2.93376 80.1789V80.1846C2.93376 80.4294 2.87616 80.6387 2.76 80.8134C2.64288 80.9881 2.47488 81.1206 2.25504 81.2118C2.03424 81.303 1.76832 81.3491 1.45728 81.3491H1.45824Z" fill="black"/>
<path d="M8.90693 77.2856H9.38021V81.308H8.90693V78.0738L8.94053 78.2514L7.84038 80.7484H7.50245L6.40134 78.3061L6.43686 78.0738V81.308H5.96069V77.2856H6.43397L7.67141 80.0658L8.90693 77.2856Z" fill="black"/>
<path d="M13.6963 77.2856H14.1773L15.6605 81.308H15.1344L13.9363 77.8837L12.7392 81.308H12.2131L13.6963 77.2856ZM12.8967 79.9247H15.0125V80.3788H12.8967V79.9247Z" fill="black"/>
<path d="M18.7938 79.1528H20.1657C20.2953 79.1528 20.4086 79.123 20.5065 79.0635C20.6034 79.0049 20.6793 78.9214 20.733 78.8139C20.7858 78.7073 20.8146 78.5835 20.8166 78.4443C20.8166 78.3041 20.7897 78.1803 20.7369 78.0728C20.6831 77.9643 20.6073 77.8817 20.5094 77.8232C20.4114 77.7656 20.2982 77.7358 20.1666 77.7358H18.7948V77.2817H20.1446C20.3769 77.2817 20.5814 77.3297 20.758 77.4257C20.9337 77.5208 21.071 77.6571 21.167 77.8337C21.2649 78.0094 21.3129 78.2129 21.3129 78.4433C21.3129 78.6737 21.2649 78.8773 21.167 79.0529C21.071 79.2286 20.9337 79.364 20.7561 79.4609C20.5794 79.5569 20.3759 79.6049 20.1446 79.6049H18.7948V79.1518L18.7938 79.1528ZM18.5471 77.2827H19.029V81.308H18.5471V77.2827ZM19.9862 79.4821L20.4508 79.3553L21.4799 81.308H20.9068L19.9862 79.4821Z" fill="black"/>
<path d="M25.1442 77.5314H25.6261V81.3071H25.1442V77.5314ZM23.9653 77.2847H26.8041V77.7387H23.9653V77.2847Z" fill="black"/>
<path d="M32.9001 77.2856H33.3571L35.5094 80.6524L35.3923 80.6332V77.2856H35.8713V81.3052H35.4096L33.2381 77.9461L33.3782 77.9903V81.3052H32.9001V77.2856Z" fill="black"/>
<path d="M39.146 77.2856H39.6279V81.308H39.146V77.2856ZM39.4196 80.8549H41.7303V81.308H39.4196V80.8549ZM39.4196 79.0847H41.425V79.5378H39.4196V79.0847ZM39.4196 77.2856H41.7303V77.7397H39.4196V77.2856Z" fill="black"/>
<path d="M45.5463 77.5314H46.0282V81.3071H45.5463V77.5314ZM44.3674 77.2847H47.2062V77.7387H44.3674V77.2847Z" fill="black"/>
<path d="M51.9947 77.2856H52.3268L53.1783 80.5909L53.9588 77.2856H54.4763L53.4395 81.308H52.946L52.178 78.3176L51.3745 81.308H50.883L49.8452 77.2856H50.3627L51.1431 80.5909L51.9947 77.2856Z" fill="black"/>
<path d="M58.6108 81.3491C58.3209 81.3491 58.0704 81.2886 57.8582 81.1696C57.646 81.0496 57.4828 80.8777 57.3676 80.656C57.2534 80.4342 57.1958 80.1702 57.1958 79.8669V78.7273C57.1958 78.4221 57.2534 78.159 57.3676 77.9363C57.4819 77.7126 57.6451 77.5418 57.8582 77.4227C58.0694 77.3037 58.3209 77.2441 58.6108 77.2441C58.8998 77.2441 59.1513 77.3037 59.3644 77.4227C59.5766 77.5418 59.7398 77.7126 59.8531 77.9363C59.9673 78.159 60.024 78.423 60.024 78.7273V79.8669C60.024 80.1712 59.9673 80.4342 59.8531 80.656C59.7398 80.8777 59.5766 81.0496 59.3644 81.1696C59.1513 81.2886 58.8998 81.3491 58.6108 81.3491ZM58.6108 80.8845C58.8009 80.8845 58.9651 80.8432 59.1033 80.7635C59.2435 80.6838 59.35 80.5677 59.4249 80.4179C59.4998 80.2672 59.5372 80.0905 59.5372 79.8851V78.7062C59.5372 78.4989 59.4998 78.3203 59.4249 78.1705C59.35 78.0208 59.2435 77.9056 59.1033 77.8249C58.9651 77.7443 58.8 77.7049 58.6108 77.7049C58.4208 77.7049 58.2556 77.7443 58.1174 77.8249C57.9772 77.9046 57.8707 78.0208 57.7977 78.1705C57.7238 78.3203 57.6873 78.4989 57.6873 78.7062V79.8851C57.6873 80.0896 57.7248 80.2672 57.7977 80.4179C57.8716 80.5677 57.9782 80.6829 58.1174 80.7635C58.2556 80.8432 58.4208 80.8845 58.6108 80.8845Z" fill="black"/>
<path d="M63.4071 79.1528H64.779C64.9086 79.1528 65.0218 79.123 65.1198 79.0635C65.2167 79.0049 65.2926 78.9214 65.3463 78.8139C65.3991 78.7073 65.4279 78.5835 65.4298 78.4443C65.4298 78.3041 65.403 78.1803 65.3502 78.0728C65.2964 77.9643 65.2206 77.8817 65.1226 77.8232C65.0247 77.7656 64.9114 77.7358 64.7799 77.7358H63.4081V77.2817H64.7578C64.9902 77.2817 65.1946 77.3297 65.3713 77.4257C65.547 77.5208 65.6842 77.6571 65.7802 77.8337C65.8782 78.0094 65.9262 78.2129 65.9262 78.4433C65.9262 78.6737 65.8782 78.8773 65.7802 79.0529C65.6842 79.2286 65.547 79.364 65.3694 79.4609C65.1927 79.5569 64.9892 79.6049 64.7578 79.6049H63.4081V79.1518L63.4071 79.1528ZM63.1604 77.2827H63.6423V81.308H63.1604V77.2827ZM64.5994 79.4821L65.0641 79.3553L66.0932 81.308H65.5201L64.5994 79.4821Z" fill="black"/>
<path d="M69.4513 79.8114L71.4433 77.2856H72.0462L69.4926 80.3893L69.4513 79.8114ZM69.1335 77.2856H69.6155V81.308H69.1335V77.2856ZM70.3528 79.1615L70.6907 78.7487L72.2142 81.3071H71.6305L70.3518 79.1605L70.3528 79.1615Z" fill="black"/>
</svg>
